<svg xmlns="http://www.w3.org/2000/svg" version="1.1" xmlns:xlink="http://www.w3.org/1999/xlink" viewBox="0 0 17.180281953809992 3.452858125684995"><g transform="matrix(1,0,0,1,3.2528497657772393,1.1894290628424975)"><g clip-path="url(#SvgjsClipPath1001)"><g clip-path="url(#SvgjsClipPath10004551d4e5-7aa3-4477-a8fd-7415b3ad8feb)"><path d=" M -1.5264207029347425 -0.5894207029347427 L -0.3999999999999999 -0.5894207029347427 L -0.3999999999999999 0.5369999999999999 L -1.5264207029347425 0.5369999999999999 Z" fill="#c84449" transform="matrix(1,0,0,1,0,0)" fill-rule="nonzero"></path></g><g clip-path="url(#SvgjsClipPath10004551d4e5-7aa3-4477-a8fd-7415b3ad8feb)"><path d=" M -2.652841405869485 0.5369999999999999 L -1.5264207029347425 0.5369999999999999 L -1.5264207029347425 1.6634207029347425 L -2.652841405869485 1.6634207029347425 Z" fill="#c84449" transform="matrix(1,0,0,1,0,0)" fill-rule="nonzero"></path></g><g clip-path="url(#SvgjsClipPath10004551d4e5-7aa3-4477-a8fd-7415b3ad8feb)"><path d=" M -2.652841405869485 -0.5894207029347427 L -1.5264207029347425 -0.5894207029347427 L -1.5264207029347425 0.5369999999999999 L -2.652841405869485 0.5369999999999999 Z" fill="#e37f7c" transform="matrix(1,0,0,1,0,0)" fill-rule="nonzero"></path></g><g clip-path="url(#SvgjsClipPath10004551d4e5-7aa3-4477-a8fd-7415b3ad8feb)"><path d=" M -1.5264207029347425 0.5369999999999999 L -0.3999999999999999 0.5369999999999999 L -0.3999999999999999 1.6634207029347425 L -1.5264207029347425 1.6634207029347425 Z" fill="#e37f7c" transform="matrix(1,0,0,1,0,0)" fill-rule="nonzero"></path></g><g clip-path="url(#SvgjsClipPath10004551d4e5-7aa3-4477-a8fd-7415b3ad8feb)"><path d=" M -2.465933792842245 -0.4024661557115459 C -2.682363015125567 -0.18607604525818622 -2.705345126411833 0.1719223567592545 -2.5626808154387506 0.5369999999999999 L -1.5264207029347425 0.5369999999999999 L -1.5264207029347425 -0.49926011250400726 C -1.891498346175489 -0.6419244234770899 -2.2494967481929296 -0.6189423121908236 -2.465933792842245 -0.4024661557115459 Z" fill="#c84449" transform="matrix(1,0,0,1,0,0)" fill-rule="nonzero"></path></g><g clip-path="url(#SvgjsClipPath10004551d4e5-7aa3-4477-a8fd-7415b3ad8feb)"><path d=" M -2.1476026087732905 1.1581819058385476 C -1.9711406487258936 1.3376070814174519 -1.759713295155121 1.4788843561341267 -1.5264207029347459 1.5732601125040067 L -1.5264207029347459 0.5369999999999999 L -2.5626808154387506 0.5369999999999999 C -2.468305849144049 0.7702930103339332 -2.327028472964946 0.981720515747476 -2.1476026087732905 1.1581819058385467 Z" fill="#382d5e" transform="matrix(1,0,0,1,0,0)" fill-rule="nonzero"></path></g><g clip-path="url(#SvgjsClipPath10004551d4e5-7aa3-4477-a8fd-7415b3ad8feb)"><path d=" M -1.5264207029347425 -0.49926011250400726 L -1.5264207029347425 0.5369999999999999 L -0.49016059043073623 0.5369999999999999 C -0.5845383218632354 0.30370845300500515 -0.7258153429471532 0.09228147900626893 -0.9052387970961961 -0.08418190583854623 C -1.0817001871872665 -0.26360777003020147 -1.2931276926008077 -0.40488514620930494 -1.526420702934741 -0.49926011250400726 Z" fill="#382d5e" transform="matrix(1,0,0,1,0,0)" fill-rule="nonzero"></path></g><g clip-path="url(#SvgjsClipPath10004551d4e5-7aa3-4477-a8fd-7415b3ad8feb)"><path d=" M -1.5264207029347425 1.5732601125040075 C -1.1613430596939975 1.7159244234770894 -0.8033446576765573 1.692942312190824 -0.5869154353932351 1.4765130899075014 C -0.3704862131099116 1.2600838676241788 -0.3474962794576535 0.9020776432407456 -0.49016059043073623 0.5369999999999999 L -1.5264207029347425 0.5369999999999999 Z" fill="#c84449" transform="matrix(1,0,0,1,0,0)" fill-rule="nonzero"></path></g></g><g><path d=" M 0.11325 0.2647499999999998 Q 0.1785 0.14249999999999985 0.2985 0.07424999999999982 Q 0.4185 0.005999999999999783 0.5745 0.005999999999999783 Q 0.7725 0.005999999999999783 0.9075 0.1117499999999998 Q 1.0425 0.2174999999999998 1.0815000000000001 0.3989999999999998 L 0.765 0.3989999999999998 Q 0.7365 0.33899999999999986 0.68625 0.3074999999999998 Q 0.636 0.2759999999999998 0.5700000000000001 0.2759999999999998 Q 0.468 0.2759999999999998 0.40725 0.3487499999999998 Q 0.34650000000000003 0.4214999999999999 0.34650000000000003 0.5429999999999998 Q 0.34650000000000003 0.6659999999999998 0.40725 0.7387499999999998 Q 0.468 0.8114999999999999 0.5700000000000001 0.8114999999999999 Q 0.636 0.8114999999999999 0.68625 0.7799999999999998 Q 0.7365 0.7484999999999998 0.765 0.6884999999999999 L 1.0815000000000001 0.6884999999999999 Q 1.0425 0.8699999999999999 0.9075 0.9757499999999999 Q 0.7725 1.0815 0.5745 1.0815 Q 0.4185 1.0815 0.2985 1.0132499999999998 Q 0.1785 0.9449999999999998 0.11325 0.8227499999999999 Q 0.048 0.7004999999999999 0.048 0.5429999999999998 Q 0.048 0.3869999999999998 0.11325 0.2647499999999998 M 1.888493408203125 0.9014999999999999 L 1.513493408203125 0.9014999999999999 L 1.456493408203125 1.0739999999999998 L 1.147493408203125 1.0739999999999998 L 1.532993408203125 0.016499999999999737 L 1.8719934082031249 0.016499999999999737 L 2.2559934082031248 1.0739999999999998 L 1.945493408203125 1.0739999999999998 L 1.888493408203125 0.9014999999999999 M 1.814993408203125 0.6764999999999999 L 1.700993408203125 0.3344999999999998 L 1.588493408203125 0.6764999999999999 L 1.814993408203125 0.6764999999999999 M 2.644500732421875 0.8489999999999999 L 2.973000732421875 0.8489999999999999 L 2.973000732421875 1.0739999999999998 L 2.350500732421875 1.0739999999999998 L 2.350500732421875 0.016499999999999737 L 2.644500732421875 0.016499999999999737 L 2.644500732421875 0.8489999999999999 M 3.37954248046875 0.016499999999999737 L 3.37954248046875 1.0739999999999998 L 3.08554248046875 1.0739999999999998 L 3.08554248046875 0.016499999999999737 L 3.37954248046875 0.016499999999999737 M 4.207517578125 1.0739999999999998 L 4.002017578125 0.7754999999999999 L 3.826517578125 1.0739999999999998 L 3.4920175781249996 1.0739999999999998 L 3.8355175781249997 0.5324999999999999 L 3.4800175781249996 0.016499999999999737 L 3.826517578125 0.016499999999999737 L 4.026017578125 0.3074999999999998 L 4.197017578125 0.016499999999999737 L 4.5315175781249994 0.016499999999999737 L 4.192517578125 0.5489999999999998 L 4.554017578125 1.0739999999999998 L 4.207517578125 1.0739999999999998 M 5.449538085937499 0.016499999999999737 L 5.449538085937499 0.25049999999999983 L 5.167538085937499 0.25049999999999983 L 5.167538085937499 1.0739999999999998 L 4.8735380859375 1.0739999999999998 L 4.8735380859375 0.25049999999999983 L 4.5945380859375 0.25049999999999983 L 4.5945380859375 0.016499999999999737 L 5.449538085937499 0.016499999999999737 M 5.8515439453125 0.2519999999999998 L 5.8515439453125 0.4244999999999999 L 6.1890439453125 0.4244999999999999 L 6.1890439453125 0.6479999999999999 L 5.8515439453125 0.6479999999999999 L 5.8515439453125 0.8384999999999998 L 6.2340439453125 0.8384999999999998 L 6.2340439453125 1.0739999999999998 L 5.557543945312499 1.0739999999999998 L 5.557543945312499 0.016499999999999737 L 6.2340439453125 0.016499999999999737 L 6.2340439453125 0.2519999999999998 L 5.8515439453125 0.2519999999999998 M 7.642472900390625 1.0739999999999998 L 7.348472900390624 1.0739999999999998 L 6.956972900390625 0.4829999999999999 L 6.956972900390625 1.0739999999999998 L 6.662972900390624 1.0739999999999998 L 6.662972900390624 0.016499999999999737 L 6.956972900390625 0.016499999999999737 L 7.348472900390624 0.6149999999999998 L 7.348472900390624 0.016499999999999737 L 7.642472900390625 0.016499999999999737 L 7.642472900390625 1.0739999999999998 M 8.483994873046875 0.3644999999999998 Q 8.458494873046874 0.3224999999999998 8.414244873046874 0.2999999999999998 Q 8.369994873046874 0.27749999999999986 8.309994873046875 0.27749999999999986 Q 8.198994873046875 0.27749999999999986 8.135244873046874 0.3494999999999998 Q 8.071494873046875 0.4214999999999999 8.071494873046875 0.5429999999999998 Q 8.071494873046875 0.6794999999999998 8.139744873046874 0.7507499999999998 Q 8.207994873046875 0.8219999999999998 8.338494873046875 0.8219999999999998 Q 8.492994873046875 0.8219999999999998 8.558994873046874 0.6824999999999999 L 8.263494873046874 0.6824999999999999 L 8.263494873046874 0.47099999999999986 L 8.812494873046875 0.47099999999999986 L 8.812494873046875 0.7559999999999998 Q 8.777994873046875 0.8399999999999999 8.711244873046875 0.9134999999999999 Q 8.644494873046874 0.9869999999999999 8.542494873046875 1.03425 Q 8.440494873046875 1.0815 8.309994873046875 1.0815 Q 8.150994873046875 1.0815 8.028744873046875 1.0132499999999998 Q 7.906494873046874 0.9449999999999998 7.839744873046874 0.8227499999999999 Q 7.7729948730468745 0.7004999999999999 7.7729948730468745 0.5429999999999998 Q 7.7729948730468745 0.3869999999999998 7.839744873046874 0.2647499999999998 Q 7.906494873046874 0.14249999999999985 8.027994873046875 0.07424999999999982 Q 8.149494873046875 0.005999999999999783 8.308494873046875 0.005999999999999783 Q 8.507994873046874 0.005999999999999783 8.638494873046874 0.10199999999999987 Q 8.768994873046875 0.19799999999999984 8.800494873046874 0.3644999999999998 L 8.483994873046875 0.3644999999999998 M 9.2310234375 0.016499999999999737 L 9.2310234375 0.6299999999999999 Q 9.2310234375 0.7154999999999998 9.270773437499999 0.7619999999999998 Q 9.310523437499999 0.8084999999999998 9.3915234375 0.8084999999999998 Q 9.4725234375 0.8084999999999998 9.5137734375 0.7612499999999998 Q 9.5550234375 0.7139999999999999 9.5550234375 0.6299999999999999 L 9.5550234375 0.016499999999999737 L 9.8490234375 0.016499999999999737 L 9.8490234375 0.6299999999999999 Q 9.8490234375 0.7754999999999999 9.787523437499999 0.8782499999999999 Q 9.7260234375 0.9809999999999999 9.6202734375 1.0327499999999998 Q 9.5145234375 1.0844999999999998 9.3855234375 1.0844999999999998 Q 9.2565234375 1.0844999999999998 9.1552734375 1.0327499999999998 Q 9.0540234375 0.9809999999999999 8.9962734375 0.8789999999999998 Q 8.938523437499999 0.7769999999999999 8.938523437499999 0.6299999999999999 L 8.938523437499999 0.016499999999999737 L 9.2310234375 0.016499999999999737 M 10.303486083984374 0.2519999999999998 L 10.303486083984374 0.4244999999999999 L 10.640986083984375 0.4244999999999999 L 10.640986083984375 0.6479999999999999 L 10.303486083984374 0.6479999999999999 L 10.303486083984374 0.8384999999999998 L 10.685986083984375 0.8384999999999998 L 10.685986083984375 1.0739999999999998 L 10.009486083984374 1.0739999999999998 L 10.009486083984374 0.016499999999999737 L 10.685986083984375 0.016499999999999737 L 10.685986083984375 0.2519999999999998 L 10.303486083984374 0.2519999999999998 M 12.064446533203125 0.016499999999999737 L 12.064446533203125 1.0739999999999998 L 11.770446533203124 1.0739999999999998 L 11.770446533203124 0.4904999999999998 L 11.570946533203124 1.0739999999999998 L 11.324946533203125 1.0739999999999998 L 11.123946533203124 0.4859999999999999 L 11.123946533203124 1.0739999999999998 L 10.829946533203124 1.0739999999999998 L 10.829946533203124 0.016499999999999737 L 11.185446533203125 0.016499999999999737 L 11.450946533203124 0.7034999999999998 L 11.710446533203124 0.016499999999999737 L 12.064446533203125 0.016499999999999737 M 12.464942871093749 1.0147499999999998 Q 12.34044287109375 0.9449999999999998 12.267692871093749 0.8212499999999998 Q 12.19494287109375 0.6974999999999998 12.19494287109375 0.5414999999999999 Q 12.19494287109375 0.38549999999999984 12.267692871093749 0.2617499999999998 Q 12.34044287109375 0.1379999999999998 12.464942871093749 0.06899999999999973 Q 12.58944287109375 -2.220446049250313e-16 12.737942871093749 -2.220446049250313e-16 Q 12.887942871093749 -2.220446049250313e-16 13.01169287109375 0.06899999999999973 Q 13.13544287109375 0.1379999999999998 13.207442871093749 0.2617499999999998 Q 13.27944287109375 0.38549999999999984 13.27944287109375 0.5414999999999999 Q 13.27944287109375 0.6974999999999998 13.207442871093749 0.8212499999999998 Q 13.13544287109375 0.9449999999999998 13.01094287109375 1.0147499999999998 Q 12.886442871093749 1.0844999999999998 12.737942871093749 1.0844999999999998 Q 12.58944287109375 1.0844999999999998 12.464942871093749 1.0147499999999998 M 12.91569287109375 0.7379999999999998 Q 12.980942871093749 0.6644999999999999 12.980942871093749 0.5414999999999999 Q 12.980942871093749 0.41549999999999987 12.91569287109375 0.3427499999999998 Q 12.85044287109375 0.2699999999999998 12.737942871093749 0.2699999999999998 Q 12.62394287109375 0.2699999999999998 12.559442871093749 0.3427499999999998 Q 12.49494287109375 0.41549999999999987 12.49494287109375 0.5414999999999999 Q 12.49494287109375 0.6659999999999998 12.559442871093749 0.7387499999999998 Q 12.62394287109375 0.8114999999999999 12.737942871093749 0.8114999999999999 Q 12.85044287109375 0.8114999999999999 12.91569287109375 0.7379999999999998" fill="#382d5e" fill-rule="nonzero"></path></g><g></g></g><defs><clipPath id="SvgjsClipPath1001"><path d=" M -2.652841405869485 -0.5894207029347427 h 2.2528414058694852 v 2.2528414058694852 h -2.2528414058694852 Z"></path></clipPath><clipPath id="SvgjsClipPath10004551d4e5-7aa3-4477-a8fd-7415b3ad8feb"><path d=" M -2.652841405869485 -0.5894207029347427 L -0.3999999999999999 -0.5894207029347427 L -0.3999999999999999 1.6634207029347425 L -2.652841405869485 1.6634207029347425 Z"></path></clipPath></defs></svg>